<?xml version="1.0" encoding="UTF-8"?>
<svg id="Ebene_1" data-name="Ebene 1" xmlns="http://www.w3.org/2000/svg" viewBox="0 0 80 80">
  <defs>
    <style>
      .cls-1 {
        fill: none;
        stroke: #000;
        stroke-linecap: round;
        stroke-linejoin: round;
        stroke-width: 2px;
      }
    </style>
  </defs>
  <rect class="cls-1" x="10" y="10" width="60" height="60" rx="12.3" ry="12.3"/>
  <path class="cls-1" d="M29.93,56.86h-7.71v-22.11h7.71v22.11ZM45.94,41.96c-1.88,0-3.4,1.52-3.4,3.4v11.51h-8.11v-22.11h8.11v2.52c1.9-1.61,4.3-2.51,6.79-2.54,5.03,0,8.52,3.73,8.52,10.81v11.32h-8.52v-11.51c0-1.88-1.5-3.4-3.38-3.41,0,0-.01,0-.02,0v.02ZM30.07,27.1c0,2.19-1.78,3.97-3.97,3.97s-3.97-1.78-3.97-3.97,1.78-3.97,3.97-3.97c2.18.02,3.94,1.79,3.94,3.97h.03Z"/>
</svg>