<svg viewBox="0 0 400 300" xmlns="http://www.w3.org/2000/svg" aria-hidden="true">
                <rect x="56.0" y="8.0" width="300.0" height="190.0" rx="10" fill="rgba(255,255,255,.03)" stroke="rgba(255,255,255,.16)" stroke-width="1.3"/>
          <rect x="40.0" y="18.0" width="300.0" height="190.0" rx="10" fill="rgba(255,255,255,.035)" stroke="rgba(255,255,255,.2)" stroke-width="1.5"/>
          <rect x="22.0" y="30.0" width="300.0" height="190.0" rx="10" fill="rgba(255,255,255,.05)" stroke="rgba(255,255,255,.4)" stroke-width="2"/>
          <rect x="22.0" y="30.0" width="300.0" height="8.0" fill="rgba(255,255,255,.55)"/>
          <rect x="44.0" y="58.0" width="180.0" height="13.0" rx="3" fill="rgba(255,255,255,.88)"/>
          <rect x="44.0" y="77.0" width="114.0" height="8.0" rx="2" fill="rgba(255,255,255,.42)"/>
          <circle cx="50.0" cy="108.0" r="3.0" fill="rgba(255,255,255,.6)"/>
          <rect x="61.0" y="104.0" width="120.0" height="8.0" rx="2" fill="rgba(255,255,255,0.40)"/>
          <circle cx="50.0" cy="130.0" r="3.0" fill="rgba(255,255,255,.6)"/>
          <rect x="61.0" y="126.0" width="104.0" height="8.0" rx="2" fill="rgba(255,255,255,0.34)"/>
          <circle cx="50.0" cy="152.0" r="3.0" fill="rgba(255,255,255,.6)"/>
          <rect x="61.0" y="148.0" width="88.0" height="8.0" rx="2" fill="rgba(255,255,255,0.28)"/>
          <rect x="202.0" y="166.0" width="14.4" height="32.0" rx="2" fill="rgba(255,255,255,.28)"/>
          <rect x="222.4" y="148.0" width="14.4" height="50.0" rx="2" fill="rgba(255,255,255,.28)"/>
          <rect x="242.8" y="158.0" width="14.4" height="40.0" rx="2" fill="rgba(255,255,255,.28)"/>
          <rect x="263.2" y="132.0" width="14.4" height="66.0" rx="2" fill="rgba(255,255,255,.28)"/>
          <rect x="283.6" y="142.0" width="14.4" height="56.0" rx="2" fill="rgba(255,255,255,.28)"/>
              </svg>