<svg aria-label="Skizze eines Trainingsplans: Standortbestimmung, Live-Übung, Video-Feedback, Wiederholen &amp; schärfen, Transfer in den Alltag" role="img" viewBox="0 0 880 600" xmlns="http://www.w3.org/2000/svg">
<rect fill="rgba(255,255,255,.045)" height="540.0" rx="18" stroke="rgba(255,255,255,.22)" stroke-width="1.4" width="280.0" x="300.0" y="30.0"></rect>
<rect fill="rgba(255,255,255,.55)" height="10.0" rx="2" width="92.0" x="318.0" y="43.0"></rect>
<rect fill="rgba(255,255,255,.26)" height="6.0" rx="2" width="58.0" x="318.0" y="58.0"></rect>
<circle cx="554.0" cy="50.0" fill="none" r="9.0" stroke="rgba(255,255,255,.4)" stroke-width="1.4"></circle>
<line stroke="rgba(255,255,255,.5)" stroke-width="1.4" x1="554.0" x2="554.0" y1="44.0" y2="50.0"></line>
<line stroke="rgba(255,255,255,.5)" stroke-width="1.4" x1="554.0" x2="558.0" y1="50.0" y2="53.0"></line>
<line stroke="rgba(255,255,255,.14)" stroke-width="1.4" x1="300.0" x2="580.0" y1="70.0" y2="70.0"></line>
<circle cx="342.0" cy="100.0" fill="rgba(255,255,255,.15)" r="20.0" stroke="rgba(255,255,255,.4)" stroke-width="1.4"></circle>
<rect fill="rgba(255,255,255,0.32)" height="8.0" rx="2" width="184.0" x="376.0" y="84.0"></rect>
<rect fill="rgba(255,255,255,0.26)" height="8.0" rx="2" width="138.0" x="376.0" y="100.0"></rect>
<rect fill="rgba(255,255,255,0.20)" height="8.0" rx="2" width="92.0" x="376.0" y="116.0"></rect>
<line stroke="rgba(255,255,255,.28)" stroke-width="1.2" x1="286.0" x2="299.0" y1="120.0" y2="120.0"></line>
<circle cx="300.0" cy="120.0" fill="rgba(255,255,255,.75)" r="2.6"></circle>
<text fill="rgba(255,255,255,.92)" font-family="var(--font-serif)" font-size="15" font-weight="700" text-anchor="end" x="276.0" y="108.5">Standortbestimmung</text>
<text fill="rgba(255,255,255,.6)" font-family="var(--font-sans)" font-size="11.5" text-anchor="end" x="276.0" y="127.5">Wo Dein Team heute steht,</text>
<text fill="rgba(255,255,255,.6)" font-family="var(--font-sans)" font-size="11.5" text-anchor="end" x="276.0" y="142.5">bevor es losgeht</text>
<rect fill="rgba(255,255,255,.025)" height="100.0" width="280.0" x="300.0" y="170.0"></rect>
<line stroke="rgba(255,255,255,.1)" stroke-width="1" x1="300.0" x2="580.0" y1="170.0" y2="170.0"></line>
<line stroke="rgba(255,255,255,.4)" stroke-width="2" x1="340.0" x2="340.0" y1="198.0" y2="236.0"></line>
<rect fill="rgba(255,255,255,.16)" height="22.0" rx="7" stroke="rgba(255,255,255,.55)" stroke-width="1.4" width="14.0" x="333.0" y="184.0"></rect>
<line stroke="rgba(255,255,255,.16)" stroke-width="1" x1="330.0" x2="550.0" y1="248.0" y2="248.0"></line>
<circle cx="378.0" cy="200.0" fill="rgba(255,255,255,0.48)" r="3.4"></circle>
<circle cx="394.0" cy="200.0" fill="rgba(255,255,255,0.48)" r="3.4"></circle>
<circle cx="410.0" cy="200.0" fill="rgba(255,255,255,0.48)" r="3.4"></circle>
<circle cx="426.0" cy="200.0" fill="rgba(255,255,255,0.48)" r="3.4"></circle>
<circle cx="442.0" cy="200.0" fill="rgba(255,255,255,0.48)" r="3.4"></circle>
<circle cx="458.0" cy="200.0" fill="rgba(255,255,255,0.48)" r="3.4"></circle>
<circle cx="378.0" cy="220.0" fill="rgba(255,255,255,0.32)" r="3.4"></circle>
<circle cx="394.0" cy="220.0" fill="rgba(255,255,255,0.32)" r="3.4"></circle>
<circle cx="410.0" cy="220.0" fill="rgba(255,255,255,0.32)" r="3.4"></circle>
<circle cx="426.0" cy="220.0" fill="rgba(255,255,255,0.32)" r="3.4"></circle>
<circle cx="442.0" cy="220.0" fill="rgba(255,255,255,0.32)" r="3.4"></circle>
<circle cx="458.0" cy="220.0" fill="rgba(255,255,255,0.32)" r="3.4"></circle>
<line stroke="rgba(255,255,255,.28)" stroke-width="1.2" x1="581.0" x2="594.0" y1="220.0" y2="220.0"></line>
<circle cx="580.0" cy="220.0" fill="rgba(255,255,255,.75)" r="2.6"></circle>
<text fill="rgba(255,255,255,.92)" font-family="var(--font-serif)" font-size="15" font-weight="700" text-anchor="start" x="604.0" y="208.5">Live-Übung</text>
<text fill="rgba(255,255,255,.6)" font-family="var(--font-sans)" font-size="11.5" text-anchor="start" x="604.0" y="227.5">Präsentieren im</text>
<text fill="rgba(255,255,255,.6)" font-family="var(--font-sans)" font-size="11.5" text-anchor="start" x="604.0" y="242.5">geschützten Rahmen</text>
<line stroke="rgba(255,255,255,.1)" stroke-width="1" x1="300.0" x2="580.0" y1="270.0" y2="270.0"></line>
<rect fill="rgba(255,255,255,.05)" height="46.0" rx="8" stroke="rgba(255,255,255,.35)" stroke-width="1.4" width="144.0" x="320.0" y="276.0"></rect>
<circle cx="392.0" cy="299.0" fill="none" r="15.0" stroke="rgba(255,255,255,.55)" stroke-width="1.4"></circle>
<path d="M387.0,291.0 L387.0,307.0 L401.0,299.0 Z" fill="rgba(255,255,255,.6)"></path>
<rect fill="rgba(255,255,255,.14)" height="5.0" rx="2.5" width="144.0" x="320.0" y="332.0"></rect>
<rect fill="rgba(255,255,255,.55)" height="5.0" rx="2.5" width="57.6" x="320.0" y="332.0"></rect>
<line stroke="rgba(255,255,255,.28)" stroke-width="1.2" x1="286.0" x2="299.0" y1="320.0" y2="320.0"></line>
<circle cx="300.0" cy="320.0" fill="rgba(255,255,255,.75)" r="2.6"></circle>
<text fill="rgba(255,255,255,.92)" font-family="var(--font-serif)" font-size="15" font-weight="700" text-anchor="end" x="276.0" y="308.5">Video-Feedback</text>
<text fill="rgba(255,255,255,.6)" font-family="var(--font-sans)" font-size="11.5" text-anchor="end" x="276.0" y="327.5">Direkt sehen, was</text>
<text fill="rgba(255,255,255,.6)" font-family="var(--font-sans)" font-size="11.5" text-anchor="end" x="276.0" y="342.5">wirklich ankommt</text>
<rect fill="rgba(255,255,255,.025)" height="100.0" width="280.0" x="300.0" y="370.0"></rect>
<line stroke="rgba(255,255,255,.1)" stroke-width="1" x1="300.0" x2="580.0" y1="370.0" y2="370.0"></line>
<line stroke="rgba(255,255,255,.22)" stroke-width="1.4" x1="333.0" x2="547.0" y1="412.0" y2="412.0"></line>
<circle cx="333.0" cy="412.0" fill="rgba(255,255,255,.14)" r="13.0" stroke="rgba(255,255,255,.55)" stroke-width="1.4"></circle>
<text fill="rgba(255,255,255,.9)" font-family="var(--font-sans)" font-size="11" font-weight="700" text-anchor="middle" x="333.0" y="416.0">1</text>
<circle cx="404.3" cy="412.0" fill="rgba(255,255,255,.14)" r="13.0" stroke="rgba(255,255,255,.55)" stroke-width="1.4"></circle>
<text fill="rgba(255,255,255,.9)" font-family="var(--font-sans)" font-size="11" font-weight="700" text-anchor="middle" x="404.3" y="416.0">2</text>
<circle cx="475.7" cy="412.0" fill="rgba(255,255,255,.14)" r="13.0" stroke="rgba(255,255,255,.55)" stroke-width="1.4"></circle>
<text fill="rgba(255,255,255,.9)" font-family="var(--font-sans)" font-size="11" font-weight="700" text-anchor="middle" x="475.7" y="416.0">3</text>
<circle cx="547.0" cy="412.0" fill="rgba(255,255,255,.14)" r="13.0" stroke="rgba(255,255,255,.55)" stroke-width="1.4"></circle>
<text fill="rgba(255,255,255,.9)" font-family="var(--font-sans)" font-size="11" font-weight="700" text-anchor="middle" x="547.0" y="416.0">4</text>
<line stroke="rgba(255,255,255,.28)" stroke-width="1.2" x1="581.0" x2="594.0" y1="420.0" y2="420.0"></line>
<circle cx="580.0" cy="420.0" fill="rgba(255,255,255,.75)" r="2.6"></circle>
<text fill="rgba(255,255,255,.92)" font-family="var(--font-serif)" font-size="15" font-weight="700" text-anchor="start" x="604.0" y="408.5">Wiederholen &amp; schärfen</text>
<text fill="rgba(255,255,255,.6)" font-family="var(--font-sans)" font-size="11.5" text-anchor="start" x="604.0" y="427.5">Üben, verbessern,</text>
<text fill="rgba(255,255,255,.6)" font-family="var(--font-sans)" font-size="11.5" text-anchor="start" x="604.0" y="442.5">erneut testen</text>
<line stroke="rgba(255,255,255,.1)" stroke-width="1" x1="300.0" x2="580.0" y1="470.0" y2="470.0"></line>
<rect fill="rgba(255,255,255,.05)" height="16.0" rx="4" stroke="rgba(255,255,255,.45)" stroke-width="1.4" width="16.0" x="320.0" y="476.0"></rect>
<path d="M323.0,484.0 l4,5 l7,-9" fill="none" stroke="rgba(255,255,255,0.75)" stroke-linecap="round" stroke-linejoin="round" stroke-width="2.2"></path>
<rect fill="rgba(255,255,255,0.32)" height="8.0" rx="2" width="206.0" x="346.0" y="480.0"></rect>
<rect fill="rgba(255,255,255,.05)" height="16.0" rx="4" stroke="rgba(255,255,255,.45)" stroke-width="1.4" width="16.0" x="320.0" y="502.0"></rect>
<path d="M323.0,510.0 l4,5 l7,-9" fill="none" stroke="rgba(255,255,255,0.63)" stroke-linecap="round" stroke-linejoin="round" stroke-width="2.2"></path>
<rect fill="rgba(255,255,255,0.26)" height="8.0" rx="2" width="168.9" x="346.0" y="506.0"></rect>
<rect fill="rgba(255,255,255,.05)" height="16.0" rx="4" stroke="rgba(255,255,255,.45)" stroke-width="1.4" width="16.0" x="320.0" y="528.0"></rect>
<path d="M323.0,536.0 l4,5 l7,-9" fill="none" stroke="rgba(255,255,255,0.51)" stroke-linecap="round" stroke-linejoin="round" stroke-width="2.2"></path>
<rect fill="rgba(255,255,255,0.20)" height="8.0" rx="2" width="131.8" x="346.0" y="532.0"></rect>
<line stroke="rgba(255,255,255,.28)" stroke-width="1.2" x1="286.0" x2="299.0" y1="520.0" y2="520.0"></line>
<circle cx="300.0" cy="520.0" fill="rgba(255,255,255,.75)" r="2.6"></circle>
<text fill="rgba(255,255,255,.92)" font-family="var(--font-serif)" font-size="15" font-weight="700" text-anchor="end" x="276.0" y="508.5">Transfer in den Alltag</text>
<text fill="rgba(255,255,255,.6)" font-family="var(--font-sans)" font-size="11.5" text-anchor="end" x="276.0" y="527.5">Damit es im Arbeitsalltag</text>
<text fill="rgba(255,255,255,.6)" font-family="var(--font-sans)" font-size="11.5" text-anchor="end" x="276.0" y="542.5">wirklich hängen bleibt</text>
</svg>