<?xml version="1.0" encoding="UTF-8"?>
<svg id="Ebene_1" data-name="Ebene 1" xmlns="http://www.w3.org/2000/svg" viewBox="0 0 191.93 90">
  <defs>
    <style>
      .cls-1 {
        fill: #1d1d1b;
      }

      .cls-2 {
        fill: #ed1c24;
      }
    </style>
  </defs>
  <path class="cls-2" d="M26.22,10c-2.95,0-5.5,2.4-5.5,5.35s2.41,5.35,5.5,5.35,5.36-2.41,5.36-5.35-2.41-5.35-5.36-5.35Z"/>
  <path class="cls-2" d="M15.36,23.91c-2.95,0-5.36,2.41-5.36,5.49v11.77h24.8v3.2H10v2.14c0,3.08,2.41,5.35,5.36,5.35h21.59c2.95,0,5.36-2.4,5.36-5.35h-.01v-11.77h-24.8v-3.21h24.8v-2.13c0-3.08-2.41-5.49-5.36-5.49H15.36Z"/>
  <path class="cls-2" d="M66.56,23.91l-5.23,8.56v-8.56h-14.74v27.95h19.57l17.15-27.95h-16.75ZM64.55,49.04h-15.15v-22.33h9.12v15.77l9.65-15.77h10.05l-13.67,22.33Z"/>
  <path class="cls-1" d="M117.2,65.79c-.17,0-.34.05-.54.12-.2.08-.37.22-.49.39-.14.18-.21.41-.21.64,0,.31.14.6.37.8.11.11.25.19.39.25.15.06.32.09.48.09.17,0,.34-.04.53-.11.2-.08.38-.21.5-.38.15-.18.23-.41.22-.64,0-.16-.05-.33-.14-.51-.11-.19-.26-.35-.45-.45-.21-.12-.43-.19-.67-.19Z"/>
  <path class="cls-1" d="M105.2,65.95v1.3s.34.04.94.1v9.5h2.05v-10.9h-2.99Z"/>
  <path class="cls-1" d="M14.47,66.34c-.56,0-1.08.07-1.55.21-.47.14-.87.33-1.2.59-.33.25-.59.56-.78.93-.18.37-.27.79-.27,1.25,0,.32.04.6.12.86.09.26.2.48.33.68s.29.37.47.52c.18.15.37.27.56.38.18.1.38.2.56.27.18.07.36.15.52.21.28.11.62.25,1,.38.37.14.7.31.96.52.26.21.39.48.39.81,0,.18-.04.37-.1.58-.06.21-.25.38-.56.53-.31.15-.76.22-1.34.22-.29,0-.63-.02-.97-.09-.34-.05-.7-.15-1.07-.26-.37-.12-.59-.2-.65-.25l-.52,1.71c.06.02.21.09.44.17.23.1.65.2,1.25.31.59.11,1.19.17,1.8.17l.04-.05c.63,0,1.19-.06,1.68-.2.48-.14.9-.34,1.23-.6.33-.26.59-.59.76-.97.17-.38.26-.82.26-1.33,0-.29-.02-.57-.09-.84-.06-.27-.17-.53-.34-.78-.17-.26-.38-.48-.64-.68s-.5-.34-.74-.45c-.23-.1-.56-.23-.95-.38-.28-.1-.6-.21-.96-.32-.37-.12-.68-.28-.94-.48-.25-.17-.4-.45-.39-.75,0-.36.14-.65.42-.86.28-.21.74-.32,1.38-.32.27,0,.56.02.9.07.33.05.64.11.92.17.28.07.55.15.8.23v-1.79c-.34-.09-.76-.18-1.24-.26-.48-.09-.98-.12-1.49-.12h0Z"/>
  <path class="cls-1" d="M146.77,66.36c-.79,0-1.49.12-2.11.38-.61.26-1.13.61-1.55,1.08-.42.45-.74,1.02-.96,1.67-.23.7-.34,1.44-.33,2.18,0,1.74.42,3.07,1.28,3.97.86.88,2.13,1.34,3.83,1.34.74,0,1.36-.01,1.85-.05.48-.04.84-.06,1.07-.08v-5.94h-3.66v1.73h1.59v2.54c-.31.02-.57.02-.79.02-.48,0-.91-.06-1.28-.19-.36-.13-.67-.34-.92-.63-.26-.27-.44-.64-.56-1.08-.12-.44-.18-.97-.18-1.6s.06-1.15.2-1.61.32-.82.58-1.12.57-.5.92-.65c.36-.14.77-.21,1.23-.21.29,0,.61.04.96.09.34.05.63.11.82.17.2.06.44.15.74.23v-1.83c-.37-.12-.74-.22-1.12-.28-.47-.09-.99-.14-1.6-.14Z"/>
  <path class="cls-1" d="M67.68,66.39c-.77,0-1.45.11-2.04.36-.59.25-1.1.6-1.5,1.06-.41.47-.72,1.02-.93,1.68-.21.66-.32,1.41-.32,2.23s.1,1.57.31,2.22c.2.65.5,1.2.9,1.66.39.45.9.8,1.49,1.04.59.23,1.28.36,2.07.36h.04c.27.01.54,0,.81-.04.27-.04.54-.09.8-.14s.5-.12.74-.2c.25-.07.46-.16.67-.26l-.61-1.57c-.17.06-.36.14-.54.18-.18.05-.42.1-.71.15-.29.05-.61.07-.95.07-.42,0-.8-.06-1.13-.19-.34-.14-.64-.33-.87-.61-.23-.28-.42-.64-.56-1.07-.14-.44-.2-.96-.2-1.56,0-.49.05-.96.14-1.4s.23-.82.45-1.15c.21-.33.51-.59.88-.77.37-.18.82-.28,1.38-.28.28,0,.58.03.9.08.31.05.56.11.74.17.19.07.38.15.6.23v-1.83c-.18-.1-.52-.18-1-.28-.5-.1-1.01-.15-1.53-.15Z"/>
  <path class="cls-1" d="M40.27,76.83h0s0,0,0,0Z"/>
  <polygon class="cls-1" points="174.09 66.54 174.09 76.85 176.2 76.85 176.2 72.03 179.82 72.03 179.82 76.85 181.93 76.85 181.93 66.54 179.81 66.54 179.81 70.33 176.19 70.33 176.19 66.54 174.09 66.54"/>
  <path class="cls-1" d="M18.5,66.55c.26.86.54,1.75.86,2.67.62,1.8,1.29,3.57,2.02,5.33.36.84.69,1.6,1.02,2.3h0s1.64.01,1.64.01c.25-.5.53-1.14.85-1.89.32-.75.66-1.62,1.05-2.59.38-.98.75-1.99,1.11-3.04.36-1.06.65-1.98.9-2.79h-2.2c-.3.97-.64,2.06-1.03,3.28-.39,1.22-.89,2.58-1.45,4.08-.53-1.35-1.02-2.71-1.48-4.09-.39-1.23-.74-2.31-1.02-3.26h-2.25Z"/>
  <path class="cls-1" d="M49.34,66.55c.26.86.54,1.75.86,2.67.62,1.8,1.29,3.57,2.02,5.33.36.84.69,1.6,1.02,2.3h0s1.64.01,1.64.01c.25-.5.53-1.14.85-1.89.32-.75.66-1.62,1.05-2.59.38-.98.75-1.99,1.11-3.04.36-1.06.65-1.98.9-2.79h-2.2c-.29.97-.64,2.06-1.03,3.28-.39,1.22-.88,2.58-1.45,4.08-.52-1.35-1.02-2.71-1.47-4.09-.39-1.23-.74-2.31-1.02-3.26h-2.25Z"/>
  <path class="cls-1" d="M112.73,66.78c-.36.2-.73.37-1.08.52-.36.15-.69.28-.97.38v1.61h-1.11v1.59h1.11v3.78c0,.34.04.66.12.94s.21.53.39.74c.18.21.42.37.7.48.28.11.64.17,1.05.17h.01c.37-.01.71-.04,1.05-.09.33-.04.66-.11,1-.2l-.36-1.47c-.12.04-.28.07-.48.1-.21.04-.41.05-.61.05-.27,0-.47-.06-.6-.21-.14-.15-.21-.39-.21-.75v-3.55h1.91v-1.59h-1.91v-2.51Z"/>
  <path class="cls-1" d="M49.15,75.19c-.17-.58-.35-1.17-.54-1.78-.2-.61-.41-1.23-.62-1.84-.21-.63-.43-1.23-.65-1.82s-.46-1.17-.69-1.71c-.25-.54-.48-1.04-.71-1.51h-2.01c-.32.64-.65,1.34-.97,2.14-.32.8-.65,1.67-.98,2.63-.33.96-.64,1.88-.91,2.79-.27.89-.54,1.81-.79,2.75h2.07c.12-.45.32-1.18.57-2.16h4c.11.41.21.79.3,1.14.09.34.18.69.27,1.02h2.14c-.15-.52-.29-1.07-.47-1.65ZM43.43,73c.11-.33.21-.66.32-.99.11-.33.22-.68.35-1.03s.25-.74.38-1.12c.14-.38.27-.8.43-1.23.71,2,1.22,3.46,1.5,4.37h-2.98Z"/>
  <path class="cls-1" d="M84.92,69.12c-.25,0-.52.04-.8.11-.28.07-.55.18-.81.36s-.46.36-.59.56l-.06-.87h-1.93v7.56h.02s2.04-.01,2.04-.01v-4.34c0-.22.05-.45.15-.71.1-.26.27-.48.52-.66.37-.3.87-.37,1.31-.18.18.06.33.2.44.39.11.21.17.46.17.81v4.7h2.04v-5.19c0-.38-.07-.77-.22-1.18-.14-.41-.41-.72-.8-.97s-.89-.37-1.48-.37Z"/>
  <path class="cls-1" d="M125,69.12c-.25,0-.52.04-.8.11s-.55.18-.81.36c-.26.17-.46.36-.59.56l-.06-.87h-1.93v7.56h.04s2.04-.01,2.04-.01v-4.34c0-.22.05-.45.15-.71.1-.26.27-.48.52-.66s.51-.28.79-.28c.16,0,.34.04.52.1.18.06.33.2.44.39.11.21.17.46.17.81v4.7h2.04v-5.19c0-.38-.07-.77-.22-1.18-.15-.41-.42-.72-.81-.97-.39-.25-.89-.37-1.48-.37h0Z"/>
  <path class="cls-1" d="M160.34,69.12c-.26,0-.53.04-.81.11-.28.07-.54.2-.79.38-.25.18-.47.41-.65.65-.16-.36-.42-.64-.76-.84-.33-.2-.78-.29-1.29-.29-.48,0-.89.09-1.23.28-.34.2-.61.44-.82.74l-.06-.87h-1.93v7.52h2.02v-4.34c0-.22.04-.43.1-.63.06-.21.16-.38.27-.53.11-.15.26-.27.42-.36s.33-.13.53-.13c.34,0,.59.1.75.29.16.2.24.5.24.93v4.77h2.05v-4.34c0-.22.04-.43.1-.63.06-.21.16-.38.27-.53s.26-.27.42-.36.33-.14.53-.14c.34,0,.59.1.75.29s.23.5.23.93v4.77h2.04v-5.22c0-.39-.06-.78-.19-1.16-.12-.39-.37-.71-.74-.96-.37-.25-.85-.37-1.44-.37h0Z"/>
  <polygon class="cls-1" points="151.99 76.81 151.96 76.81 151.99 76.85 151.99 76.81"/>
  <path class="cls-1" d="M92.39,69.14c-.43,0-.87.06-1.34.18-.47.12-.86.37-1.18.75-.33.37-.49.85-.49,1.42,0,.31.05.58.15.8.09.22.22.42.39.59.16.17.37.32.62.44.25.12.52.23.81.33.25.09.54.18.88.28.33.1.59.21.77.32.18.11.28.27.28.45,0,.23-.1.41-.31.52-.21.11-.55.16-1.06.16-.29,0-.57-.02-.85-.06-.5-.08-.99-.22-1.45-.42l-.52,1.54c.1.05.26.11.5.19.23.09.58.17,1.03.25.45.07.91.11,1.37.11h.01c.48.01.98-.05,1.51-.17.53-.12.97-.37,1.32-.75s.52-.88.52-1.5c0-.36-.07-.67-.22-.98-.15-.31-.37-.55-.68-.75-.38-.23-.8-.42-1.23-.54-.25-.07-.5-.16-.8-.23-.26-.07-.5-.17-.74-.29-.2-.11-.3-.26-.3-.44,0-.07.01-.16.05-.26.02-.09.12-.17.29-.25s.42-.11.76-.11c.81,0,1.61.14,2.38.39v-1.65c-.37-.12-.74-.2-1.12-.24-.41-.06-.86-.09-1.37-.09Z"/>
  <path class="cls-1" d="M101.71,69.29v4.34c0,.22-.05.45-.15.71-.1.26-.27.48-.5.66-.23.18-.51.28-.81.28-.17,0-.33-.02-.47-.06-.14-.03-.26-.1-.36-.2-.1-.1-.18-.23-.22-.37-.05-.16-.07-.34-.07-.56v-4.8h-2.04v5.29c0,.79.22,1.38.64,1.79.42.41,1.05.61,1.86.61h-.03c.25-.01.5-.04.79-.11.28-.06.55-.17.8-.33.25-.15.45-.34.61-.58l.06.87h1.93v-7.56h-2.04Z"/>
  <path class="cls-1" d="M115.41,69.29v1.3s.34.04.94.1v6.16h2.05v-7.56h-2.99Z"/>
  <path class="cls-1" d="M78.5,71.27c-.2-.61-.59-1.13-1.17-1.55-.58-.42-1.31-.63-2.17-.63h0c-.6,0-1.12.1-1.57.29-.88.39-1.55,1.15-1.82,2.07-.16.49-.23,1.04-.23,1.6s.07,1.07.23,1.55c.16.49.39.91.7,1.26.31.36.69.64,1.13.85.44.21.96.31,1.54.31h.02c.58,0,1.1-.1,1.55-.31.45-.21.84-.49,1.14-.85.31-.36.54-.78.7-1.26.16-.48.23-.97.23-1.55s-.1-1.18-.29-1.79ZM76.24,74.81c-.25.43-.6.64-1.11.64v-.02c-.25,0-.45-.05-.64-.16s-.33-.26-.46-.47c-.12-.21-.21-.45-.27-.75-.06-.33-.09-.66-.09-.99,0-.37.02-.7.09-.99.06-.29.15-.54.27-.75.12-.21.27-.37.46-.48.17-.11.38-.16.64-.16h0c.26,0,.49.07.73.22.23.15.41.41.54.77.14.37.19.84.19,1.4,0,.74-.12,1.33-.36,1.74Z"/>
  <path class="cls-1" d="M134.44,69.3l-.06.57c-.22-.22-.48-.39-.79-.53-.31-.14-.7-.2-1.18-.2h0c-.41,0-.8.07-1.17.25-.37.16-.7.41-.97.74-.27.33-.49.74-.65,1.23-.16.48-.23,1.04-.23,1.68,0,.68.09,1.25.23,1.73.15.48.37.87.64,1.17.27.29.59.52.96.65.37.14.75.21,1.2.21s.82-.07,1.13-.22c.32-.15.58-.34.8-.6v.75c0,.59-.16,1.03-.48,1.31-.32.28-.85.43-1.59.43-.62,0-1.23-.09-1.85-.25l-.28,1.47c.23.06.59.14,1.06.2.48.06.98.1,1.54.1h-.01c.6.01,1.14-.06,1.61-.2.47-.14.86-.36,1.18-.68.27-.26.48-.59.63-.99.15-.41.22-.93.22-1.57v-7.25h-1.93ZM134.34,73.35c0,.32-.04.63-.14.91-.1.28-.24.52-.47.68-.22.16-.48.25-.79.25h.01c-.26-.01-.48-.06-.65-.16-.17-.1-.32-.25-.42-.43-.12-.21-.2-.44-.24-.68-.05-.27-.07-.56-.07-.88,0-.37.05-.72.15-1.07.09-.34.26-.61.5-.82.25-.21.54-.32.89-.32.29,0,.53.05.72.15.19.1.36.21.49.33v2.05Z"/>
  <path class="cls-1" d="M39.05,71.16c-.19-.6-.5-1.09-.98-1.46-.47-.38-1.06-.57-1.76-.57-.27,0-.54.04-.81.11-.26.07-.49.17-.69.29-.2.12-.35.25-.46.38v-3.98h-2.04s0,10.9,0,10.9h1.93l.06-.55c.06.07.15.15.26.23.11.09.24.16.39.23.15.07.32.12.52.17.2.04.42.06.67.06h-.01c.5.01.95-.09,1.34-.26.39-.17.74-.43,1.01-.77.27-.34.48-.76.63-1.26.15-.5.22-1.08.22-1.73,0-.6-.09-1.2-.27-1.81ZM37.05,74.06c-.07.37-.22.68-.46.93-.23.26-.55.38-.93.38h.01c-.15.01-.28-.01-.42-.05-.12-.04-.25-.1-.36-.16s-.21-.15-.29-.23c-.09-.1-.16-.18-.22-.28v-1.65c0-.42.04-.76.11-1.04.07-.27.17-.49.29-.66.12-.17.28-.28.45-.35.17-.07.36-.11.57-.11.47,0,.8.18,1.02.55.22.37.33.91.33,1.61,0,.34-.04.7-.11,1.07Z"/>
  <path class="cls-1" d="M171.7,71.16c-.18-.6-.5-1.09-.98-1.46-.47-.38-1.06-.57-1.76-.57-.27,0-.53.04-.8.11-.26.07-.49.17-.69.29-.2.12-.35.25-.46.38v-3.98h-2.04s0,10.9,0,10.9h1.93l.06-.55c.06.07.15.15.26.23s.25.16.39.23c.15.07.32.12.52.17.2.04.42.06.66.06h-.02c.5.01.95-.09,1.34-.26.39-.17.74-.43,1.01-.77.27-.34.48-.76.63-1.26.15-.5.22-1.08.22-1.73,0-.6-.08-1.2-.27-1.81ZM169.69,74.06c-.07.37-.22.68-.45.93-.22.26-.54.38-.92.38h-.01c-.15.01-.28-.01-.42-.05-.12-.04-.25-.1-.36-.16-.11-.06-.21-.15-.29-.23-.08-.09-.16-.18-.22-.28v-1.65c0-.42.04-.76.11-1.04.07-.27.17-.49.29-.66.12-.17.28-.28.45-.35.17-.07.36-.11.57-.11.47,0,.8.18,1.02.55.22.37.33.91.33,1.61,0,.34-.02.7-.1,1.07Z"/>
</svg>