<?xml version="1.0" encoding="UTF-8"?>
<svg id="Ebene_1" data-name="Ebene 1" xmlns="http://www.w3.org/2000/svg" viewBox="0 0 418.83 90">
  <defs>
    <style>
      .cls-1 {
        fill-rule: evenodd;
      }

      .cls-1, .cls-2 {
        fill: #014a58;
      }

      .cls-3 {
        fill: #00ada2;
      }
    </style>
  </defs>
  <path id="letter-c" class="cls-1" d="M65.65,62.74c-6.53,14.67-23.72,21.27-38.39,14.74-14.67-6.53-21.27-23.72-14.74-38.39,6.53-14.67,23.72-21.27,38.39-14.74,6.56,2.92,11.81,8.17,14.74,14.74l-15.14,6.74c-2.81-6.31-10.21-9.15-16.52-6.34-6.31,2.81-9.15,10.21-6.34,16.52s10.21,9.15,16.52,6.34c2.82-1.26,5.08-3.52,6.34-6.34l15.14,6.74Z"/>
  <path id="letter-o" class="cls-1" d="M73.41,50.91c0,16.06,13.02,29.08,29.08,29.08s29.08-13.02,29.08-29.08-13.02-29.08-29.08-29.08-29.08,13.02-29.08,29.08ZM89.97,50.91c0,6.91,5.6,12.51,12.51,12.51s12.51-5.6,12.51-12.51-5.6-12.51-12.51-12.51-12.51,5.6-12.51,12.51Z"/>
  <path class="cls-2" d="M201.73,22.51c-7.04,0-13.45,2.69-18.26,7.09-4.81-4.41-11.22-7.09-18.26-7.09-14.94,0-27.05,12.11-27.05,27.05v28.4h17.58v-28.4c0-5.23,4.24-9.47,9.47-9.47s9.47,4.24,9.47,9.47v28.4h17.58v-28.4c0-5.23,4.24-9.47,9.47-9.47s9.47,4.24,9.47,9.47v28.4h17.58v-28.4c0-14.94-12.11-27.05-27.05-27.05Z"/>
  <rect id="letter-i1-stem" class="cls-2" x="237.06" y="23.53" width="17.58" height="54.44"/>
  <rect id="letter-i1-dot" class="cls-3" x="237.06" y="10" width="17.24" height="8.12"/>
  <path id="letter-n" class="cls-2" d="M262.76,77.96v-28.06c0-15.31,12.41-27.73,27.73-27.73s27.73,12.41,27.73,27.73v28.06h-17.58v-28.06c0-5.6-4.54-10.14-10.14-10.14s-10.14,4.54-10.14,10.14v28.06h-17.58Z"/>
  <rect id="letter-i2-stem" class="cls-2" x="326.67" y="23.53" width="17.58" height="54.44"/>
  <rect id="letter-i2-dot" class="cls-3" x="326.67" y="10" width="17.24" height="8.12"/>
  <g>
    <path id="letter-a-bowl" class="cls-1" d="M350.17,50.91c0,16.06,13.02,29.08,29.08,29.08s29.08-13.02,29.08-29.08-13.02-29.08-29.08-29.08-29.08,13.02-29.08,29.08ZM366.73,50.91c0,6.91,5.6,12.51,12.51,12.51s12.51-5.6,12.51-12.51-5.6-12.51-12.51-12.51-12.51,5.6-12.51,12.51Z"/>
    <rect id="letter-a-stem" class="cls-2" x="391.25" y="22.17" width="17.58" height="55.79"/>
  </g>
</svg>