<?xml version="1.0" encoding="UTF-8"?>
<svg id="Ebene_1" data-name="Ebene 1" xmlns="http://www.w3.org/2000/svg" viewBox="0 0 225.88 90">
  <defs>
    <style>
      .cls-1 {
        fill: #008746;
      }

      .cls-2 {
        fill: #fff;
      }

      .cls-3 {
        fill: #0042b0;
      }
    </style>
  </defs>
  <rect class="cls-3" x="146.41" y="10" width="69.48" height="70"/>
  <path class="cls-1" d="M10,59.96v-29.91h13.22c3.19,0,8.24,0,11.11,3.22,2.87,3.22,3.09,8.61,3.09,11.65,0,12.8-6.6,15.09-15.22,15.05h-12.19ZM18.68,54.54h2.89c1.01.02,2.02-.09,3.01-.31,3.28-.76,4.12-2.99,4.44-5.32.19-1.36.28-2.74.28-4.12.03-1.54-.08-3.08-.32-4.6-.15-1.28-.66-2.48-1.47-3.48-1.54-1.69-3.96-1.65-5.66-1.65h-3.16v19.48Z"/>
  <polygon class="cls-1" points="64.04 59.96 43.33 59.96 43.33 30.04 63.02 30.04 63.02 35.12 51.63 35.12 51.63 41.49 62.65 41.49 62.65 46.46 51.63 46.46 51.63 54.06 64.04 54.06 64.04 59.96 64.04 59.96"/>
  <path class="cls-1" d="M88.52,59.96h-12.42l-8.33-29.91h8.86l4.62,18.9c.55,2.16.68,2.75,1.13,5.38.57-2.79.75-3.27,1.26-5.15l5.09-19.12h8.11l-8.32,29.89Z"/>
  <polygon class="cls-1" points="118.62 40.98 128.8 59.96 120.21 59.96 113.49 47.24 109.86 51.71 109.86 59.96 101.3 59.96 101.3 30.04 109.86 30.04 109.86 42.46 119.13 30.04 127.54 30.04 118.62 40.98 118.62 40.98"/>
  <path class="cls-2" d="M164.88,30.08h-3.91l-7.97,29.84h6.35l1.53-6.48h8l1.53,6.48h6.35l-7.97-29.84h-3.91ZM164.88,48.28h-2.96l2.96-12.71,2.96,12.71h-2.96Z"/>
  <polygon class="cls-2" points="205.02 30.08 199.57 30.08 199.57 30.08 195.25 47.73 190.94 30.08 190.93 30.08 185.48 30.08 181.22 30.08 181.22 59.92 187.67 59.92 187.67 38.49 192.91 59.92 195.25 59.92 197.59 59.92 202.83 38.49 202.83 59.92 209.29 59.92 209.29 30.08 205.02 30.08"/>
</svg>