<?xml version="1.0" encoding="UTF-8"?>
<svg id="Ebene_1" data-name="Ebene 1" xmlns="http://www.w3.org/2000/svg" xmlns:xlink="http://www.w3.org/1999/xlink" viewBox="0 0 181.88 90">
  <defs>
    <style>
      .cls-1 {
        fill: none;
      }

      .cls-2 {
        fill: #024589;
      }

      .cls-3 {
        clip-path: url(#clippath);
      }
    </style>
    <clipPath id="clippath">
      <rect class="cls-1" x="10" y="10" width="161.88" height="70"/>
    </clipPath>
  </defs>
  <g class="cls-3">
    <g id="ukv">
      <g id="ukv-logo-header23">
        <path id="Pfad_136" data-name="Pfad 136" class="cls-2" d="M162.34,76.66c-.29-.25-.66-.39-1.05-.38-.38,0-.76.13-1.05.38-.62.6-.63,1.59-.03,2.2,0,0,.02.02.03.03.29.25.67.39,1.05.38.38,0,.76-.14,1.05-.38.62-.6.63-1.59.03-2.2,0,0-.02-.02-.03-.03M153.26,79.07v-6.51c.15-.04.32-.08.51-.12.2-.04.4-.06.6-.05.43-.05.86.13,1.12.48.24.52.34,1.09.3,1.66v4.55h2.42v-4.83c0-.54-.05-1.07-.16-1.6-.1-.45-.3-.88-.59-1.24-.3-.36-.68-.63-1.12-.8-.56-.2-1.15-.3-1.74-.28-.25,0-.5.03-.74.07-.21.03-.42.08-.62.16v-4.1l-2.42.38v12.25h2.44v-.02ZM142.54,76.57c.32,1.09,1.12,1.98,2.19,2.38.64.25,1.32.37,2.01.35.47,0,.94-.04,1.4-.13.36-.07.72-.17,1.06-.31l-.34-1.98c-.3.13-.61.21-.93.26-.31.05-.63.08-.94.08-.65.07-1.29-.16-1.74-.63-.36-.52-.53-1.15-.49-1.78-.03-.63.16-1.25.53-1.76.4-.47,1-.71,1.61-.67.31,0,.61.03.91.1.25.06.5.14.74.23l.5-1.94c-.75-.32-1.55-.48-2.36-.47-.64-.01-1.27.11-1.86.36-.52.22-.99.56-1.38.97-.38.41-.68.9-.88,1.43-.2.56-.3,1.15-.3,1.75,0,.6.08,1.2.25,1.78M140.2,67.02c-.28-.26-.64-.39-1.02-.38-.38,0-.74.13-1.02.38-.29.27-.45.65-.44,1.05-.02.4.14.78.44,1.05.28.26.64.39,1.02.38.38,0,.74-.13,1.02-.38.29-.27.45-.65.43-1.05.02-.4-.14-.78-.43-1.05M140.4,70.54h-2.42v8.56h2.42v-8.56ZM128.65,79.1h2.42v-4.67c0-.3,0-.59-.03-.89-.02-.27-.07-.54-.15-.8.18-.11.38-.19.58-.25.18-.06.36-.09.55-.1.4-.04.8.15,1.03.48.24.52.34,1.09.3,1.66v4.55h2.42v-4.83c0-.54-.05-1.07-.15-1.6-.08-.45-.27-.87-.54-1.24-.28-.35-.64-.63-1.05-.8-.54-.2-1.11-.3-1.68-.28-.42,0-.84.08-1.25.21-.43.13-.84.33-1.2.59-.29-.24-.61-.43-.95-.57-.48-.18-1-.26-1.51-.24-.32,0-.64,0-.96.04-.33.04-.65.07-.95.11s-.6.1-.89.16-.51.12-.72.16v8.27h2.42v-6.61c.15-.02.31-.04.48-.05.16-.02.32-.03.48-.02.4-.04.8.15,1.03.48.24.52.34,1.09.3,1.66v4.55h0l.04.04v-.03ZM118.74,70.69c-.16-.06-.32-.11-.48-.14-.2-.04-.37-.07-.56-.1-.18-.03-.37-.05-.56-.07-.16-.02-.32-.03-.48-.03-.67,0-1.33.06-1.98.21-.59.14-1.1.27-1.54.43v8.1h2.42v-6.54c.16-.04.32-.07.48-.09.18-.03.36-.04.55-.04.32,0,.63.03.94.09.3.05.55.12.77.16l.4-2h.02l.02.02ZM109.89,68.98c.25-.23.39-.56.37-.91.01-.34-.12-.67-.37-.91-.5-.45-1.27-.45-1.77,0-.5.5-.5,1.31,0,1.82.24.22.56.34.89.34.33,0,.64-.12.89-.34M106.26,68.98c.25-.23.39-.56.37-.91.01-.34-.12-.67-.37-.91-.5-.45-1.27-.45-1.77,0-.25.23-.39.56-.37.91-.01.34.12.67.37.91.5.45,1.27.45,1.77,0M110.9,70.54h-2.42v6.61c-.15.02-.33.04-.53.05s-.37.02-.56.02c-.45.06-.89-.14-1.15-.51-.24-.53-.35-1.11-.31-1.7v-4.47h-2.42v4.77c0,.54.05,1.08.18,1.61.11.46.31.89.6,1.26.31.37.7.65,1.15.82.58.21,1.2.31,1.82.3,1.23,0,2.46-.18,3.65-.5v-8.27h-.02v.02ZM97.65,67.44c-.65.72-.98,1.67-.93,2.64v9.02h2.42v-6.54h3v-2.01h-3v-.43c0-.21.03-.43.07-.63.04-.19.13-.36.25-.5.13-.16.29-.27.48-.34.24-.09.49-.13.74-.12.23,0,.47.03.7.07.24.05.48.12.7.22l.48-1.94c-.29-.11-.58-.2-.89-.26-.41-.09-.83-.14-1.25-.14-1.02-.08-2.03.28-2.78.97M85.82,66.47l-2.42.38v12.25h2.42v-3.75c.29.24.57.51.82.8.27.32.54.65.79,1s.48.69.7,1.03.42.66.59.94h2.79c-.19-.36-.42-.75-.69-1.19-.27-.45-.57-.89-.9-1.3-.33-.44-.67-.85-1.02-1.26-.32-.37-.66-.72-1.02-1.05.66-.63,1.25-1.26,1.79-1.86s1.12-1.24,1.68-1.89h-2.89c-.15.17-.34.39-.55.65s-.44.5-.68.79-.48.56-.73.83-.5.55-.74.8v-7.14h0v-.02h.04ZM82.09,70.69c-.16-.06-.32-.11-.48-.14-.2-.04-.37-.07-.56-.1-.18-.03-.37-.05-.56-.07-.16-.02-.32-.03-.48-.03-.67,0-1.33.06-1.98.21-.59.14-1.1.27-1.54.43v8.1h2.42v-6.54c.16-.04.32-.07.48-.09.18-.03.36-.04.55-.04.32,0,.63.03.94.09.3.05.55.12.77.16l.4-2h.02l.02.02ZM69.75,70.35c-.27.03-.54.05-.8.1s-.48.08-.7.13-.38.1-.52.14l.31,1.96c.34-.12.69-.2,1.04-.25.41-.06.82-.09,1.22-.09.47-.04.93.09,1.3.37.26.27.39.63.37,1v.23c-.19-.05-.39-.09-.59-.11-.28-.03-.55-.05-.83-.04-.45,0-.9.05-1.35.14-.41.08-.8.23-1.15.45-.33.21-.61.49-.8.83-.21.39-.31.83-.3,1.27-.01.46.08.91.26,1.32.17.35.43.65.74.87.35.23.75.39,1.16.48.5.11,1,.16,1.51.15.75,0,1.5-.05,2.24-.16.61-.1,1.1-.19,1.44-.26v-5.05c0-.49-.05-.97-.17-1.44-.11-.41-.32-.8-.6-1.12-.32-.32-.71-.56-1.15-.7-.58-.18-1.18-.27-1.78-.25-.28,0-.56,0-.84.04M69.75,77.2c-.27-.17-.42-.48-.38-.8,0-.17.04-.34.13-.48.09-.13.22-.24.36-.31.17-.08.34-.14.52-.16.21-.03.43-.05.65-.04.18,0,.36,0,.54.03.2.03.34.04.44.07v1.84c-.17.03-.35.05-.52.05-.22,0-.45.02-.69.02-.36.02-.73-.05-1.05-.22M60.53,75.61c0,.51.05,1.01.16,1.51.08.43.27.82.55,1.16.28.33.64.59,1.04.74.53.19,1.09.28,1.65.26.44,0,.89-.04,1.32-.13.33-.08.66-.18.97-.31l-.34-1.88c-.24.1-.5.16-.75.21-.26.05-.53.07-.8.07-.42.06-.83-.12-1.08-.46-.19-.38-.28-.8-.26-1.22v-3.02h2.92v-2.01h-2.92v-2.52l-2.42.38v7.2h-.02l-.02.02ZM52.56,76.95c-.43-.12-.84-.29-1.24-.49l-.71,2.01c.18.1.37.19.57.27.26.11.53.2.8.27.35.1.7.17,1.06.22.45.06.9.09,1.35.09,1.18.09,2.35-.22,3.34-.87.74-.59,1.16-1.5,1.12-2.45.01-.47-.06-.94-.21-1.38-.14-.37-.36-.71-.65-1-.32-.3-.68-.56-1.08-.74-.5-.24-1.01-.46-1.53-.65-.27-.1-.54-.19-.78-.28-.21-.08-.42-.18-.61-.31-.16-.1-.3-.23-.42-.38-.1-.15-.16-.34-.15-.52-.02-.31.13-.61.39-.78.41-.2.86-.29,1.31-.25.47-.02.94.05,1.39.19.36.12.71.26,1.05.43l.73-2c-1.03-.54-2.18-.81-3.35-.79-.59-.01-1.17.07-1.73.24-.47.14-.91.37-1.3.68-.36.29-.64.66-.83,1.07-.2.44-.3.92-.3,1.41-.01.46.08.92.27,1.33.17.35.42.67.71.93.3.26.63.48,1,.63.37.16.73.32,1.12.45.63.18,1.23.45,1.78.8.32.2.51.54.52.92,0,.16-.03.33-.08.48-.06.15-.16.28-.3.37-.17.12-.37.2-.57.25-.29.06-.59.09-.89.09-.61.02-1.22-.06-1.82-.22"/>
        <rect id="Rechteck_21" data-name="Rechteck 21" class="cls-2" x="10" y="46.54" width="161.88" height="4.55"/>
        <g id="Gruppe_16" data-name="Gruppe 16">
          <path id="Pfad_137" data-name="Pfad 137" class="cls-2" d="M110.06,25.62c-.67-.84-.98-.83-.98-.83,0,0,.25,0,.92-.8l12.35-13.99h-11.33l-10.93,12.01c-.23.24-.38.54-.46.86v-12.87h-9.38v31.98h9.38v-14.98s0,.31.56.91l10.92,14.07h12.2l-13.22-16.36h-.01Z"/>
          <path id="Pfad_138" data-name="Pfad 138" class="cls-2" d="M51.06,32.63V10h9.15v22.86h12.52V10h9.15v22.63c-.02,5.16-4.2,9.33-9.35,9.36h-12.13c-5.17-.06-9.34-4.26-9.36-9.43v.07h.01Z"/>
          <path id="Pfad_139" data-name="Pfad 139" class="cls-2" d="M152.2,10l-7.75,18.57c-.46.92-.73,1.93-.79,2.95-.06-1.03-.32-2.03-.78-2.95l-7.65-18.57h-10.37l14.14,31.98h9.42l14.09-31.98h-10.33.01Z"/>
        </g>
      </g>
    </g>
  </g>
</svg>